<svg fill="#f68e5f" transform="scale(0.9)" xmlns="http://www.w3.org/2000/svg" viewBox="142 190.5 227.9 187.4">   <path d="m214.3 248.4-21.7-21.7 21.7-21.7-14.5-14.5-21.7 21.7-21.7-21.7L142 205l21.7 21.7-21.7 21.7 14.4 14.5 21.7-21.7 21.7 21.7z"></path>   <path d="m369.9 248.4-21.7-21.7 21.7-21.7-14.4-14.5-21.7 21.7-21.7-21.7-14.5 14.5 21.7 21.7-21.7 21.7 14.5 14.5 21.7-21.7 21.7 21.7z"></path>   <g>     <path d="M265.8 368.2c-5.3-6.4-8-15.6-8-27.4V318h-72.5v-22.7h142.6v47c0 10.8-2.8 19.5-8.5 25.9-5.6 6.4-14.4 9.7-26.2 9.7-12.9 0-22-3.3-27.4-9.7zm39.5-17.4c2.4-2.9 3.6-7 3.6-12.2V318h-32.2v20.6c0 5.2 1.3 9.3 3.9 12.2s6.8 4.3 12.5 4.3 9.7-1.4 12.2-4.3z"></path>   </g> </svg>